<svg version="1.1" id="Layer_1" xmlns="http://www.w3.org/2000/svg" xmlns:xlink="http://www.w3.org/1999/xlink" x="0px" y="0px"
	 width="100%" viewBox="0 0 832 800" enable-background="new 0 0 832 800" xml:space="preserve">
<path fill="#000000" opacity="1.000000" stroke="none" 
	d="
M833.000000,374.531342 
	C828.128540,386.478851 820.763672,395.621735 808.632446,399.874329 
	C801.400574,402.409454 794.121826,402.629211 787.998352,397.008118 
	C781.814209,391.331329 781.724243,383.998016 783.712158,376.644623 
	C787.297791,363.381317 803.630920,348.117950 817.821899,349.802490 
	C822.024597,350.301361 822.761902,347.925995 822.752625,344.349152 
	C822.707092,326.710632 822.820862,309.071655 822.881592,291.432861 
	C822.886780,289.935608 822.831787,288.431671 822.952148,286.942749 
	C823.150879,284.483582 824.141968,282.383087 826.465820,281.290497 
	C829.152954,280.027100 830.833008,281.799347 832.720459,283.787231 
	C833.000000,314.020905 833.000000,344.041779 833.000000,374.531342 
z"/>
<path fill="#000000" opacity="1.000000" stroke="none" 
	d="
M381.438171,662.609741 
	C436.546539,667.111816 488.677246,656.850281 538.749451,635.293335 
	C569.490479,622.058777 597.438110,604.431641 620.488342,579.847473 
	C633.847595,565.599121 644.658813,549.675354 649.252869,530.269897 
	C649.986511,527.171265 651.246094,525.575317 654.748291,526.247437 
	C656.483337,526.580322 658.379333,526.103088 660.199646,525.956848 
	C665.807678,525.506470 666.719238,526.387207 665.745605,532.065979 
	C662.013000,553.834900 651.824646,572.592712 638.168579,589.554138 
	C606.136597,629.339172 564.320496,654.644897 516.634888,671.233765 
	C476.167053,685.311707 434.474854,691.115540 391.798737,689.067261 
	C334.544189,686.319275 281.475616,669.981689 233.626251,637.968323 
	C229.212418,635.015320 224.579788,635.039490 219.882339,634.403870 
	C186.490097,629.886169 156.139557,618.464905 132.271866,593.805908 
	C111.627449,572.477173 100.665001,547.114746 103.716118,516.776489 
	C104.370926,510.265472 105.921989,503.924408 108.339073,497.909790 
	C109.762703,494.367249 108.811058,492.584625 106.129921,490.392120 
	C73.927132,464.058319 48.499836,432.207184 29.960449,395.021851 
	C16.277605,367.577545 7.537805,338.676544 8.162865,307.640594 
	C8.525947,289.612579 11.979112,272.282227 25.565571,259.056000 
	C38.347710,246.612732 54.395397,242.762543 71.670357,244.517685 
	C87.289902,246.104630 101.733276,251.858643 115.262665,259.675659 
	C119.577377,262.168610 121.678795,261.834412 124.048119,257.173096 
	C144.297974,217.334244 176.309830,190.037033 216.315689,171.385361 
	C219.001083,170.133347 221.810638,169.059937 223.893387,166.869110 
	C223.705048,164.539093 221.760468,163.880539 220.417587,162.763229 
	C213.690033,157.165771 207.876358,150.834320 203.890259,142.942612 
	C202.150299,139.497787 200.566147,135.959137 200.029419,132.166016 
	C199.267548,126.781868 199.180466,121.207596 204.175491,117.583694 
	C209.006973,114.078453 213.772888,116.600754 218.265427,118.855789 
	C224.221130,121.845253 228.601410,127.016029 234.640976,131.455582 
	C233.871460,125.692139 233.092148,120.824982 232.591873,115.929306 
	C230.990189,100.255333 233.950363,85.428970 241.165771,71.443619 
	C243.026123,67.837791 245.643158,64.792755 248.731812,62.221699 
	C255.328812,56.730194 262.876801,57.761089 267.678680,64.868698 
	C272.643982,72.218170 274.782806,80.632278 276.014709,89.254128 
	C277.380707,98.814560 278.506287,108.414528 277.446472,118.116959 
	C277.251282,119.903664 277.187744,121.768951 278.342834,123.687355 
	C280.453613,122.618561 281.491516,120.739502 282.777008,119.093742 
	C287.332886,113.261169 292.369537,107.942863 299.362640,105.025177 
	C302.763428,103.606293 306.424133,102.235085 309.799377,104.909370 
	C313.177460,107.585915 313.418274,111.451996 312.931152,115.401009 
	C311.724487,125.183411 308.066650,134.027252 302.709991,142.240997 
	C301.751465,143.710754 300.167847,144.930405 300.318756,147.402466 
	C305.611084,147.133148 310.863556,147.022461 316.087006,146.574097 
	C345.370392,144.060455 373.824860,148.331528 401.876831,156.550110 
	C428.663666,164.398056 453.042786,177.342453 476.850250,191.501358 
	C479.997711,193.373230 481.513000,193.107895 483.784973,190.314178 
	C492.587708,179.489960 503.685913,172.115952 517.628113,169.768204 
	C535.353577,166.783386 549.997375,173.526825 562.821838,185.034302 
	C587.198242,206.907501 600.342896,235.164597 608.132507,266.280823 
	C614.982788,293.644714 616.902710,321.436371 614.548035,349.548950 
	C612.782593,370.626099 608.142944,390.968506 599.599915,410.368134 
	C599.275330,411.105194 599.143921,411.927338 598.763245,413.272644 
	C607.070618,416.524933 614.902588,420.492523 622.200623,425.423737 
	C634.589172,433.794586 645.674744,443.485199 653.963440,456.139313 
	C656.385559,459.837128 656.553711,462.188995 652.041626,464.243256 
	C649.394287,465.448547 647.209778,467.670227 645.021362,469.284058 
	C643.030090,469.126160 642.687805,467.649231 642.034241,466.562225 
	C628.981262,444.853973 609.198486,432.107605 585.697571,424.411652 
	C580.490356,422.706390 575.107849,421.518555 569.773193,420.228485 
	C567.446411,419.665771 565.977112,418.806549 565.680359,416.070404 
	C563.437073,395.387024 559.901367,374.896210 555.960144,354.482788 
	C548.848877,317.650269 536.039917,282.982880 515.534790,251.420959 
	C503.814758,233.381226 489.948059,217.335159 471.122375,206.156067 
	C443.820221,189.943436 415.701202,195.331940 395.967346,220.111755 
	C383.073090,236.303101 375.569153,254.697952 371.381134,274.691833 
	C371.043457,276.303833 371.129486,278.042908 369.488373,279.136505 
	C367.360962,279.021393 366.541595,277.168396 365.335907,275.885040 
	C347.604462,257.010498 328.281128,240.272827 303.513733,231.224457 
	C284.663055,224.337646 265.412048,221.378433 245.876129,228.326294 
	C228.141083,234.633667 216.601440,247.583405 209.220703,264.430511 
	C199.301392,287.072083 199.617020,310.787872 202.569016,334.682129 
	C206.276947,364.695068 218.612015,391.557434 233.236099,417.528381 
	C238.209869,426.361298 242.984116,435.377747 250.244888,442.694519 
	C250.642609,443.095337 250.689240,443.844543 250.878647,444.373871 
	C249.183945,446.262543 247.293243,445.394287 245.574478,445.170197 
	C217.423325,441.500458 190.277512,444.635498 165.115280,458.375793 
	C144.454346,469.658081 128.637451,485.646790 123.529472,509.459717 
	C118.134178,534.612122 124.987968,556.992676 141.850250,576.237244 
	C155.919296,592.293945 173.542725,603.079590 193.709320,609.719116 
	C208.006500,614.426208 222.672607,617.396301 237.789093,617.683594 
	C263.930359,618.180481 287.987671,610.300232 311.270691,599.332520 
	C314.315796,597.898132 314.320557,597.908264 318.756073,598.102234 
	C308.020599,611.831726 293.123535,617.317078 278.002838,623.975037 
	C309.673248,645.816284 343.726837,658.424133 381.438171,662.609741 
M216.343613,406.054504 
	C208.590302,390.510468 202.252945,374.439850 198.230392,357.502075 
	C197.849915,355.900055 197.393997,354.359680 196.371445,352.931335 
	C179.905273,329.930023 161.498489,308.751190 138.900162,291.496124 
	C117.808342,275.391296 95.166611,262.585510 67.998924,260.751556 
	C48.598373,259.441956 32.492924,266.947357 26.909246,289.079681 
	C20.940378,312.738861 24.975458,335.945221 32.669781,358.311188 
	C48.292542,403.723602 75.657295,441.067963 113.377029,470.791412 
	C115.546295,472.500793 117.431358,474.761383 120.862236,475.491150 
	C125.881126,468.456970 132.724197,462.886047 138.483017,456.664825 
	C137.585297,454.326355 135.850708,453.835693 134.551208,452.864105 
	C126.696899,446.991638 118.525467,441.500854 111.015701,435.218292 
	C91.083878,418.543671 75.460747,398.242981 63.602398,375.243927 
	C55.255589,359.055420 48.809563,342.047852 48.848576,323.359680 
	C48.885319,305.760468 60.803410,295.559784 77.911346,298.914185 
	C95.869087,302.435242 110.864250,311.971863 124.920807,323.209534 
	C145.416031,339.594666 161.717438,359.768860 177.143982,380.755096 
	C187.898239,395.385162 197.064331,411.083130 207.771576,425.773102 
	C212.448120,432.189148 217.865021,433.543030 224.667450,433.592773 
	C226.329361,433.604950 228.173386,433.791443 229.226227,432.190857 
	C230.457626,430.318817 229.165985,428.738037 228.259552,427.147064 
	C224.385712,420.347565 220.536880,413.533813 216.343613,406.054504 
M514.182739,223.329590 
	C531.461792,243.079529 544.472412,265.406799 554.500854,289.588165 
	C566.630981,318.837433 574.645142,349.102112 577.398499,380.685211 
	C578.077393,388.472229 578.263062,396.301422 578.877747,404.095245 
	C579.137512,407.389221 582.133179,409.288422 584.174500,407.631042 
	C585.259705,406.749939 585.918762,405.220795 586.507019,403.869629 
	C593.938599,386.800171 598.682190,369.073120 600.076965,350.434174 
	C602.831543,313.623779 600.254578,277.620972 585.206177,243.274704 
	C577.015259,224.579849 566.744324,207.422165 550.335571,194.714462 
	C532.230835,180.693375 512.913757,182.225311 497.020447,198.535950 
	C494.231171,201.398483 493.769501,203.478806 497.145782,206.209656 
	C503.241882,211.140427 508.620880,216.838638 514.182739,223.329590 
M158.433746,435.077179 
	C153.998520,431.562531 149.396027,428.237213 145.161346,424.495636 
	C134.929520,415.455261 126.771507,405.354126 126.587196,390.568451 
	C126.519310,385.123413 125.869614,379.618683 125.630150,374.128815 
	C125.242996,365.253479 116.007980,354.685638 107.933792,353.883698 
	C106.591782,356.487366 107.512260,359.016083 108.228264,361.560455 
	C109.173294,364.918701 110.358269,368.236237 110.345322,371.785583 
	C110.337166,374.023712 110.059227,376.289124 107.517128,377.070526 
	C105.249603,377.767517 103.766739,376.237152 102.415482,374.694031 
	C91.725563,362.486084 90.494720,346.968842 99.397171,333.084839 
	C95.435814,329.213318 91.238297,325.490784 86.515572,322.391510 
	C79.726547,317.936188 72.592712,314.587708 64.127983,315.121155 
	C60.240364,315.366119 58.013199,317.071960 57.107265,320.889862 
	C55.362736,328.241882 56.412491,335.477325 57.944294,342.647644 
	C62.054684,361.888092 71.282036,378.753632 82.400826,394.733490 
	C96.214035,414.585754 113.419395,431.256042 131.537247,447.036377 
	C139.714661,454.158691 142.158234,454.074402 151.494919,448.671692 
	C156.008163,446.060059 160.668243,443.702179 165.736145,440.974091 
	C163.100418,438.847137 161.041626,437.185730 158.433746,435.077179 
z"/>
<path fill="#000000" opacity="1.000000" stroke="none" 
	d="
M268.017578,415.878082 
	C256.980072,390.670013 245.903656,365.887726 235.282532,340.911804 
	C228.109924,324.045258 227.051331,306.480682 233.176270,289.168213 
	C244.490219,257.188751 275.301178,243.907455 306.757355,256.769501 
	C327.003418,265.047852 340.658478,280.136658 351.468536,298.616608 
	C364.752930,321.326538 373.890259,345.800354 383.212189,370.227112 
	C387.242371,380.787659 392.080475,391.032410 394.342010,402.247101 
	C400.508545,432.826355 382.729218,456.066101 357.116943,464.559235 
	C336.334320,471.450836 316.427246,470.172913 297.784393,458.008331 
	C288.033325,451.645660 281.291534,442.589386 275.974518,432.426880 
	C273.196747,427.117737 270.762085,421.629028 268.017578,415.878082 
M248.400803,280.938232 
	C238.986755,296.852386 238.568512,313.835602 242.925156,331.168152 
	C245.948502,343.196320 252.707077,353.746979 257.360199,365.136414 
	C266.498749,387.504913 276.534058,409.457397 287.105621,431.175415 
	C291.316528,439.826294 297.722839,446.562744 305.757965,451.562622 
	C312.991516,456.063690 321.076172,457.993134 329.867615,457.683289 
	C329.380737,455.498047 328.031342,455.005951 326.985718,454.257385 
	C317.762360,447.654327 310.156219,439.538055 304.904297,429.481171 
	C296.564545,413.511536 289.905975,396.788971 283.777466,379.871674 
	C281.441406,373.423218 283.956177,368.757904 290.766876,366.150177 
	C295.572540,364.310089 300.635742,363.127075 305.395416,361.187897 
	C308.444214,359.945709 310.861664,357.420105 309.869110,353.748962 
	C308.907715,350.193146 306.067993,348.390320 302.350983,348.285126 
	C301.035797,348.247925 299.640320,348.290253 298.404755,348.683533 
	C293.493378,350.246674 288.580688,351.782013 284.196564,354.682098 
	C279.098511,358.054535 275.315918,357.206879 272.385376,351.676941 
	C270.214172,347.579865 268.469269,343.193726 267.055298,338.769867 
	C261.999939,322.953186 264.367493,308.107727 275.443329,295.765869 
	C286.984528,282.905426 301.676727,277.991943 318.890991,282.638367 
	C321.416504,283.320068 323.974060,283.883026 326.994324,284.616974 
	C309.585205,261.351532 269.696869,251.910736 248.400803,280.938232 
z"/>
<path fill="#000000" opacity="1.000000" stroke="none" 
	d="
M406.194153,304.733521 
	C398.986176,289.903381 395.275665,274.955017 400.389893,259.001862 
	C412.000458,222.784424 454.888550,211.135620 483.728180,236.186722 
	C494.685944,245.705032 501.825256,257.852631 508.326660,270.478271 
	C521.304077,295.680298 532.729614,321.574707 542.250916,348.280914 
	C545.276367,356.767059 547.197815,365.550385 547.311218,374.634247 
	C547.544250,393.301910 538.896484,406.802124 522.901672,415.741516 
	C509.308380,423.338715 494.596558,425.272278 479.351349,422.904968 
	C463.012115,420.367767 451.738586,410.640900 444.887024,396.154236 
	C438.917908,383.533264 434.206726,370.322144 428.770874,357.442993 
	C421.387726,339.950134 413.843842,322.525146 406.194153,304.733521 
M435.120361,304.124542 
	C432.544647,296.754883 432.185211,289.143494 432.690002,281.447601 
	C433.869476,263.464874 449.468140,248.870834 467.423737,248.568237 
	C472.586792,248.481216 477.449554,250.203445 482.354340,250.743942 
	C482.890930,249.258545 482.248474,248.630493 481.758331,247.987900 
	C467.473785,229.259964 435.388763,227.907028 419.805664,245.550430 
	C406.741364,260.342072 406.337402,277.165619 413.131958,294.635071 
	C416.684235,303.768372 421.289581,312.486420 425.058990,321.542023 
	C434.075195,343.202423 443.033234,364.889771 451.717529,386.684692 
	C458.609894,403.982483 470.642426,413.587463 489.660400,413.531067 
	C491.245361,413.526367 493.011353,413.875092 493.869568,411.498291 
	C485.069641,405.846039 477.303131,398.939484 472.402802,389.675903 
	C465.242065,376.139313 459.020111,362.118347 454.043427,347.610596 
	C451.487061,340.158508 453.908447,335.039154 461.175354,331.866730 
	C465.131287,330.139709 469.389221,329.096893 473.320435,327.323242 
	C476.798676,325.753998 479.059204,322.944580 477.428192,318.888580 
	C475.925110,315.150787 472.798706,313.768372 468.862488,314.709259 
	C463.780945,315.923950 459.203278,318.195770 455.030792,321.381622 
	C449.645447,325.493561 446.729370,325.023132 442.525635,319.640381 
	C439.085327,315.235138 437.219513,310.066467 435.120361,304.124542 
z"/>
<path fill="#000000" opacity="1.000000" stroke="none" 
	d="
M647.380615,517.918579 
	C638.170227,511.527283 635.287354,503.364227 638.302673,492.373535 
	C641.843201,479.468933 655.647217,461.827240 675.772217,461.051819 
	C679.820984,460.895844 680.790344,459.360138 680.779175,455.632019 
	C680.716675,434.809021 680.999573,413.984192 680.823975,393.162842 
	C680.775452,387.408356 682.764771,384.291870 688.080261,381.681305 
	C712.440063,369.717865 736.532593,357.211060 760.749634,344.955597 
	C768.242920,341.163483 771.307068,343.072418 771.238342,351.416809 
	C770.972107,383.725861 770.668335,416.034576 770.366272,448.343323 
	C770.344360,450.688995 770.172791,453.117218 771.510315,455.144684 
	C779.145752,466.719025 775.388367,477.645935 769.015503,487.885895 
	C762.454651,498.427948 753.189514,505.671509 740.407898,507.763397 
	C725.880493,510.141052 715.318909,500.605042 716.878174,485.951202 
	C718.850464,467.416016 738.059814,447.795959 756.225586,449.472046 
	C758.492737,449.681244 759.717407,448.960052 759.715271,446.512390 
	C759.696533,424.883789 759.704346,403.255219 759.704346,380.691650 
	C754.479553,383.030823 749.804626,384.991669 745.243896,387.189514 
	C728.896729,395.067322 712.635742,403.126038 696.228516,410.875580 
	C692.560059,412.608307 691.081848,414.720154 691.143005,418.851593 
	C691.352600,433.007843 691.170044,447.169891 691.142578,461.329712 
	C691.138062,463.662018 691.156738,465.918701 692.691101,467.979340 
	C696.779541,473.470490 697.327026,479.811707 695.719543,486.115417 
	C692.077942,500.395325 683.922913,511.409241 670.400635,517.766663 
	C663.050964,521.222107 655.334106,521.788391 647.380615,517.918579 
M743.735535,366.331573 
	C727.820984,374.329987 711.897583,382.310944 695.997437,390.337769 
	C691.386230,392.665649 690.903198,394.507690 693.495972,399.552582 
	C694.384094,399.288116 695.383850,399.150330 696.230408,398.714813 
	C715.184387,388.964844 734.613525,380.206512 753.832336,371.009155 
	C760.763428,367.692230 760.699524,367.332123 759.210815,359.211578 
	C753.636047,360.127289 749.283813,363.663971 743.735535,366.331573 
z"/>
<path fill="#000000" opacity="1.000000" stroke="none" 
	d="
M544.593994,604.651245 
	C525.277832,612.131653 507.677216,622.576538 488.621033,630.310181 
	C487.142914,626.117126 489.675842,624.645813 491.338745,623.109314 
	C500.874359,614.298157 512.268677,608.325623 523.854309,602.841492 
	C535.133667,597.502258 546.738098,592.851196 558.181824,587.856628 
	C559.994019,587.065735 561.882629,586.308228 563.351746,584.195129 
	C544.811646,566.142639 543.082520,545.503845 555.075439,522.781006 
	C552.500671,521.691956 550.004700,522.163269 547.608154,522.185364 
	C529.626770,522.350952 511.627258,523.144775 493.868347,519.121277 
	C487.190155,517.608276 480.671722,515.634888 474.201843,513.447876 
	C472.576019,512.898254 470.867462,512.237488 471.129456,510.136627 
	C471.378693,508.137878 473.194916,507.706451 474.830750,507.317932 
	C478.858551,506.361206 482.801697,507.405518 486.709503,508.076721 
	C510.298645,512.128235 533.996460,513.289185 557.817627,510.790985 
	C572.834229,509.216156 581.709351,514.258301 586.562317,528.759827 
	C592.471313,546.416992 593.954651,564.244507 585.830505,581.841797 
	C583.237549,587.458191 578.992615,591.151123 573.312012,593.368713 
	C563.850525,597.062378 554.400696,600.785767 544.593994,604.651245 
z"/>
<path fill="#000000" opacity="1.000000" stroke="none" 
	d="
M786.226135,520.000000 
	C786.226990,527.662476 786.209595,534.825073 786.234741,541.987488 
	C786.298767,560.270386 771.967468,577.426819 754.036011,580.508789 
	C743.366211,582.342590 735.250366,575.772095 734.811829,564.944824 
	C734.032166,545.694336 752.989624,527.479187 772.129272,529.072937 
	C773.089233,529.152893 774.061646,529.083252 774.968506,529.083252 
	C776.287292,527.111816 775.810364,525.052795 775.792419,523.109802 
	C775.612610,503.622742 776.131897,484.148132 776.745667,464.674805 
	C776.777039,463.680298 776.768005,462.642517 777.048462,461.705933 
	C777.824097,459.115662 779.433716,457.010437 782.302795,457.249451 
	C785.197083,457.490631 786.565125,459.850891 786.646912,462.551880 
	C786.752441,466.037201 786.352966,469.534454 786.337341,473.027313 
	C786.268188,488.518066 786.258545,504.009094 786.226135,520.000000 
z"/>
<path fill="#000000" opacity="1.000000" stroke="none" 
	d="
M464.817322,438.767700 
	C479.829010,426.172180 496.919708,427.690948 509.758911,438.523651 
	C516.352112,444.086548 519.050476,451.344025 517.577209,459.987976 
	C516.039612,469.009979 513.210632,477.774048 512.285400,486.926178 
	C512.064819,489.107788 511.168427,491.329681 508.442871,491.451385 
	C505.514252,491.582184 504.445740,489.327606 503.826385,487.015747 
	C502.675415,482.719604 503.310333,478.404877 504.246307,474.164612 
	C505.142395,470.104889 506.387329,466.120972 507.248688,462.054993 
	C510.070129,448.736725 498.670593,437.403503 485.097626,439.591156 
	C475.993134,441.058594 469.971283,447.174042 464.042114,453.120697 
	C455.340851,461.847656 445.126068,463.665497 433.726501,461.323975 
	C428.191833,460.187103 422.790466,458.405731 417.321686,456.942444 
	C412.917053,455.763885 408.411011,455.591339 403.925842,456.097595 
	C394.686035,457.140594 389.474243,465.533081 392.585205,474.319031 
	C394.571777,479.929474 398.329437,484.434448 402.294861,488.725342 
	C405.458252,492.148407 408.875885,495.335114 412.103424,498.700806 
	C414.789734,501.502106 417.131897,504.573242 417.294647,508.665161 
	C417.454529,512.684814 414.929291,514.208252 411.510010,512.104553 
	C409.829437,511.070618 408.270355,509.726166 406.931519,508.269287 
	C400.958984,501.770111 394.864624,495.363312 389.228973,488.578705 
	C380.985596,478.654816 379.351715,466.525208 384.843872,457.471008 
	C391.502258,446.494141 402.080841,444.799866 413.622131,445.993591 
	C418.762970,446.525360 423.761810,447.930908 428.636902,449.663696 
	C440.932556,454.034027 451.882324,452.718445 460.810883,442.313293 
	C461.885284,441.061249 463.285675,440.088867 464.817322,438.767700 
z"/>
<path fill="#000000" opacity="1.000000" stroke="none" 
	d="
M457.345520,476.599152 
	C463.389038,474.939850 467.848602,471.635895 471.651550,467.251312 
	C474.923706,463.478790 478.421967,459.899475 482.651184,457.167694 
	C490.099304,452.356750 496.712433,455.164459 497.975067,463.880096 
	C499.179688,472.195526 497.348022,480.170776 493.638428,487.565369 
	C490.672882,493.476837 486.025726,494.399902 480.416565,490.735077 
	C478.296844,489.350159 476.245789,488.151062 473.598816,488.008301 
	C471.037170,487.870209 468.769196,486.906219 468.017395,483.713104 
	C459.334381,488.674103 450.353943,489.077118 441.042328,487.270111 
	C440.014771,490.965302 441.704102,493.934540 441.616791,497.024597 
	C441.400055,504.692932 437.140808,507.217743 430.487885,503.363373 
	C422.689301,498.845245 416.662384,492.484070 411.913879,484.909332 
	C409.687500,481.357819 408.715576,477.497162 411.209137,473.629211 
	C413.732025,469.715790 417.728210,469.314270 421.843262,469.763489 
	C426.705078,470.294159 431.068970,472.508331 435.529175,474.308929 
	C442.469147,477.110596 449.503174,478.632904 457.345520,476.599152 
z"/>
</svg>