<?xml version="1.0" encoding="UTF-8"?>
<svg version="1.1" xmlns="http://www.w3.org/2000/svg" width="500" height="500">
<path d="M0 0 C3.17062961 5.02817019 3.85637552 10.04344922 4.625 15.8125 C4.86369916 17.52783279 5.10570502 19.24270982 5.3515625 20.95703125 C5.45291504 21.70960205 5.55426758 22.46217285 5.65869141 23.23754883 C5.83324673 25.01983732 5.83324673 25.01983732 7 26 C7.45375 25.175 7.9075 24.35 8.375 23.5 C8.91125 22.675 9.4475 21.85 10 21 C10.66 21 11.32 21 12 21 C12 20.34 12 19.68 12 19 C14.57856865 18.07908262 15.5943287 17.81493098 18.140625 18.9765625 C18.75421875 19.31429687 19.3678125 19.65203125 20 20 C20.05418326 22.08304538 20.09287551 24.16649768 20.125 26.25 C20.14820313 27.41015625 20.17140625 28.5703125 20.1953125 29.765625 C20.0103949 32.82786046 19.60823023 34.44202751 18 37 C18.66 36.67 19.32 36.34 20 36 C53.31867776 32.03067429 80.43812946 42.77883592 106.3828125 63.046875 C108.53299216 64.75731949 110.42990179 66.43557706 112.3671875 68.3984375 C112.90601563 68.92695313 113.44484375 69.45546875 114 70 C116.98263061 69.81358559 119.38707959 68.39977879 122 67 C122 66.34 122 65.68 122 65 C128.21418594 62.31278446 135.12623946 61.76875977 141.60546875 63.828125 C144.97802532 65.30258692 147.93352175 66.95568117 151 69 C151 69.66 151 70.32 151 71 C151.66 71 152.32 71 153 71 C156 74.46153846 156 74.46153846 156 77 C156.66 77 157.32 77 158 77 C162 82.29411765 162 82.29411765 162 86 C162.66 86 163.32 86 164 86 C164 87.32 164 88.64 164 90 C164.66 90 165.32 90 166 90 C177.16148676 123.12263941 181.09981666 152.59546751 168 186 C171.96 187.98 175.92 189.96 180 192 C180 192.66 180 193.32 180 194 C180.763125 194.28875 181.52625 194.5775 182.3125 194.875 C185 196 185 196 188 198 C188 198.66 188 199.32 188 200 C188.66 200 189.32 200 190 200 C190 200.66 190 201.32 190 202 C190.66 202 191.32 202 192 202 C192 202.66 192 203.32 192 204 C192.99 204.33 193.98 204.66 195 205 C196.6875 207.5625 196.6875 207.5625 198 210 C198.81942725 207.12671536 199.12834394 204.57029566 199.1328125 201.5859375 C199.13474609 200.74643555 199.13667969 199.90693359 199.13867188 199.04199219 C199.1319043 197.72183105 199.1319043 197.72183105 199.125 196.375 C199.12306641 195.47942383 199.12113281 194.58384766 199.11914062 193.66113281 C199.08020135 187.71424059 198.78673724 181.90052929 198 176 C209.03557665 168.99665328 220.28699771 162.66249676 232.04882812 156.97119141 C233.42126826 156.28806242 234.778404 155.57373967 236.12304688 154.83740234 C236.81978516 154.46180176 237.51652344 154.08620117 238.234375 153.69921875 C239.17361816 153.17654419 239.17361816 153.17654419 240.13183594 152.64331055 C242.44962922 151.84516819 243.71729421 152.21583308 246 153 C246.02722517 155.20826378 246.04649729 157.41662638 246.0625 159.625 C246.07410156 160.85476562 246.08570313 162.08453125 246.09765625 163.3515625 C246 167 246 167 245.51367188 169.84960938 C245.00843053 172.94829486 244.79673615 175.91902671 244.68359375 179.0546875 C244.64169922 180.16328125 244.59980469 181.271875 244.55664062 182.4140625 C244.49766602 184.12722656 244.49766602 184.12722656 244.4375 185.875 C244.39431641 187.0403125 244.35113281 188.205625 244.30664062 189.40625 C244.20098371 192.27072625 244.09888201 195.13528321 244 198 C244.62519531 198.14179688 245.25039063 198.28359375 245.89453125 198.4296875 C248.54367841 199.14726725 249.42109437 199.74442053 251 202 C252.33333333 208.33333333 252.33333333 208.33333333 251 211 C252.32 211 253.64 211 255 211 C255.07213664 216.00147359 255.05787968 220.99862625 255 226 C254.98332275 227.4538208 254.98332275 227.4538208 254.96630859 228.93701172 C254.91725341 232.10478761 254.83702793 235.27055609 254.75 238.4375 C254.73590088 239.45521484 254.72180176 240.47292969 254.70727539 241.52148438 C254.45497173 249.18748894 252.87179612 254.62141633 247.875 260.5 C246 262 246 262 244 262 C244 262.66 244 263.32 244 264 C240.24199202 264.81055074 237.7756828 265.28666538 234.125 263.9375 C232 262 232 262 231 259.3125 C231 254.27677543 232.02092068 250.16706575 235.48046875 246.37890625 C240.3633384 242.43462024 241.77057552 243 249 243 C248.67 234.75 248.34 226.5 248 218 C247.34 218.99 246.68 219.98 246 221 C245.34 221 244.68 221 244 221 C244 221.66 244 222.32 244 223 C243.34 223 242.68 223 242 223 C242 223.66 242 224.32 242 225 C241.34 225 240.68 225 240 225 C240 225.66 240 226.32 240 227 C234.47890731 229.42153188 231.04757825 230.57237034 225 229 C222.19347569 226.19347569 222.63383389 224.29416805 222.5625 220.375 C222.67692789 213.78529964 223.56035996 209.85237525 228 205 C229.36202266 204.02376124 230.72674375 203.0512793 232.09375 202.08203125 C235.7221838 198.94328649 236.6506852 196.69162432 237.21875 191.9453125 C237.35066305 189.67376984 237.44345461 187.39966695 237.5 185.125 C237.55929687 183.99191406 237.61859375 182.85882813 237.6796875 181.69140625 C237.98294854 175.46011398 238.05297279 169.23754564 238 163 C236.35064453 163.97839844 236.35064453 163.97839844 234.66796875 164.9765625 C227.24610669 169.36713737 219.8337791 173.73105809 212.19921875 177.74609375 C211.47347656 178.15988281 210.74773437 178.57367188 210 179 C208.95404663 179.56243408 208.95404663 179.56243408 207.88696289 180.13623047 C205.68072873 181.9393337 205.68072873 181.9393337 205.54589844 185.1862793 C205.5668457 186.46929932 205.58779297 187.75231934 205.609375 189.07421875 C205.61503479 189.7580513 205.62069458 190.44188385 205.62652588 191.1464386 C205.64889184 193.32750899 205.69908235 195.50692753 205.75 197.6875 C205.770065 199.16729395 205.78831578 200.6471137 205.8046875 202.12695312 C205.84875526 205.7518376 205.91778178 209.37575756 206 213 C206.96156006 213.45592529 207.92312012 213.91185059 208.91381836 214.3815918 C212 216 212 216 213.37890625 217.89453125 C214.83133926 222.81818781 213.8917832 227.93892065 211.8828125 232.58203125 C210.15727732 235.742109 208.55296991 238.44703009 206 241 C205.55644454 243.08129872 205.11437753 245.1629254 204.6796875 247.24609375 C201.75579137 259.09291429 196.01871443 269.81701416 188 279 C187.34 279 186.68 279 186 279 C186 279.66 186 280.32 186 281 C185.34 281 184.68 281 184 281 C184 281.66 184 282.32 184 283 C183.34 283 182.68 283 182 283 C182 283.66 182 284.32 182 285 C180.1408712 286.63700703 178.28730465 288.13817366 176.3125 289.625 C175.72452637 290.07085449 175.13655273 290.51670898 174.53076172 290.97607422 C160.4352528 301.50167285 144.65401697 310.29064022 128 316 C126.9996875 316.34675781 125.999375 316.69351562 124.96875 317.05078125 C89.71895765 328.57817546 46.50265076 331.55091943 12.4375 314.5625 C1.14404958 308.5410794 1.14404958 308.5410794 -3 305 C-3 304.34 -3 303.68 -3 303 C-3.66 303 -4.32 303 -5 303 C-5 302.34 -5 301.68 -5 301 C-5.66 301 -6.32 301 -7 301 C-7 300.34 -7 299.68 -7 299 C-7.66 299 -8.32 299 -9 299 C-9 298.34 -9 297.68 -9 297 C-9.648479 297.02094727 -10.29695801 297.04189453 -10.96508789 297.06347656 C-31.36202278 297.63412122 -46.03344922 294.7269631 -64 285 C-64 284.34 -64 283.68 -64 283 C-64.804375 282.690625 -64.804375 282.690625 -65.625 282.375 C-68.91978009 280.46749574 -71.59363628 277.95180616 -74 275 C-74 274.34 -74 273.68 -74 273 C-74.66 273 -75.32 273 -76 273 C-76.98929461 271.13032395 -77.96600469 269.25398622 -78.9375 267.375 C-79.75541016 265.80878906 -79.75541016 265.80878906 -80.58984375 264.2109375 C-84.33787719 255.67663422 -84.24964686 244.72714439 -81 236 C-78.90421747 231.0970927 -76.72445169 226.59542582 -73.125 222.625 C-70.76714772 220.32070893 -70.76714772 220.32070893 -71.125 218.14453125 C-72.27166179 215.33418607 -73.9228542 213.38290774 -75.875 211.0625 C-83 202.55719557 -83 202.55719557 -83 199 C-83.66 199 -84.32 199 -85 199 C-87 196 -87 196 -87 193 C-87.66 193 -88.32 193 -89 193 C-104.09581314 174.07923421 -113.64170482 144.91063628 -112 121 C-111.03008674 114.80137253 -108.84691691 110.9386448 -103.8125 107.15234375 C-97.58060761 103.19025699 -90.54168333 103.10974661 -83.44921875 104.5 C-77.46344972 106.13840645 -72.28004632 108.77330503 -67 112 C-66.9175 110.741875 -66.835 109.48375 -66.75 108.1875 C-65.42143761 96.67927712 -59.59850207 83.73512011 -52 75 C-51.34 75 -50.68 75 -50 75 C-49.79375 74.46375 -49.5875 73.9275 -49.375 73.375 C-47.46749574 70.08021991 -44.95180616 67.40636372 -42 65 C-41.34 65 -40.68 65 -40 65 C-40 64.34 -40 63.68 -40 63 C-38.09369051 61.48465064 -36.20217235 60.1080384 -34.1875 58.75 C-33.60524658 58.35176025 -33.02299316 57.95352051 -32.4230957 57.54321289 C-27.14735379 53.98951898 -21.66404574 50.89445223 -16 48 C-16.45890625 47.56429687 -16.9178125 47.12859375 -17.390625 46.6796875 C-27.16857757 37.18932177 -27.16857757 37.18932177 -27.5 29.8125 C-27.53125 27.26953125 -27.53125 27.26953125 -27 25 C-25.1953125 23.18359375 -25.1953125 23.18359375 -23 22 C-19.67955183 22.22899643 -16.989803 22.5050985 -14 24 C-14.04640625 23.24976562 -14.0928125 22.49953125 -14.140625 21.7265625 C-14.39851892 14.41342785 -13.81945929 8.37403271 -10 2 C-6.67045315 -0.98805486 -4.18171774 -1.87076846 0 0 Z M123.0625 74.6875 C122.711875 75.120625 122.36125 75.55375 122 76 C122.309375 76.61875 122.61875 77.2375 122.9375 77.875 C123.625 79.25 124.3125 80.625 125 82 C125.66 82 126.32 82 127 82 C127.24234375 82.51691406 127.4846875 83.03382813 127.734375 83.56640625 C129.06614024 86.12717707 130.55262125 88.56740497 132.07055664 91.02124023 C144.94343509 111.93600384 151.96132817 135.07447079 157 159 C157.23460937 160.10988281 157.46921875 161.21976562 157.7109375 162.36328125 C158.91618829 168.53800812 159.53906003 174.72879035 160 181 C171.48480653 166.76669276 169.8833313 144.64403004 168.25 127.5 C166.74759754 113.69624946 162.57300941 102.12526913 156 90 C155.62746094 89.278125 155.25492187 88.55625 154.87109375 87.8125 C152.54889064 83.45958372 149.6027234 79.38655999 146 76 C145.34 76 144.68 76 144 76 C144 75.34 144 74.68 144 74 C142.56570999 73.32645501 141.12742943 72.66140299 139.6875 72 C138.88699219 71.62875 138.08648437 71.2575 137.26171875 70.875 C132.07976785 68.87023834 127.09250315 71.17749725 123.0625 74.6875 Z M60.43359375 86.94921875 C58.71353082 88.99276956 58.71353082 88.99276956 59 92 C58.34 92 57.68 92 57 92 C52.65171515 101.69236013 50.90282949 110.50292274 50 121 C46.65291351 119.4454954 44.60548168 117.60548168 42 115 C41.34 115 40.68 115 40 115 C40 114.34 40 113.68 40 113 C39.34 113 38.68 113 38 113 C38 112.34 38 111.68 38 111 C37.34 111 36.68 111 36 111 C36 110.34 36 109.68 36 109 C34.03071288 107.44498365 32.07677137 106.02324199 30 104.625 C29.40058594 104.21870361 28.80117187 103.81240723 28.18359375 103.39379883 C16.58291059 95.63130066 3.01746026 90.11542753 -11.1875 91.1875 C-18.2944988 92.7021063 -23.02521932 97.09941008 -27 103 C-36.45728851 121.94460016 -32.40421253 144.51929066 -26.07470703 163.82177734 C-22.74233151 173.42254939 -18.95361255 182.76999961 -14.12890625 191.72265625 C-13.08402142 193.83050349 -12.46168156 195.70220557 -12 198 C-11.34 198 -10.68 198 -10 198 C-9.88785156 198.56203125 -9.77570313 199.1240625 -9.66015625 199.703125 C-8.90942661 202.31513108 -7.78832624 204.39471322 -6.4375 206.75 C-5.98246094 207.54921875 -5.52742188 208.3484375 -5.05859375 209.171875 C-4.70925781 209.77515625 -4.35992187 210.3784375 -4 211 C-11.62458472 210.11046512 -11.62458472 210.11046512 -13.765625 209.48046875 C-30.42908168 205.89724293 -45.98193567 211.34094671 -59.90625 220.21484375 C-67.004569 225.51970449 -72.33482608 234.34704266 -74 243 C-75.16191365 251.91768723 -72.61406149 260.11569122 -67.875 267.6875 C-66.946875 268.8321875 -66.946875 268.8321875 -66 270 C-65.34 270 -64.68 270 -64 270 C-63.75121094 270.59296875 -63.50242187 271.1859375 -63.24609375 271.796875 C-61.82025774 274.31778882 -60.38383287 275.53817911 -58.0625 277.25 C-57.37285156 277.77078125 -56.68320313 278.2915625 -55.97265625 278.828125 C-53.95254528 280.25536771 -53.95254528 280.25536771 -51 280 C-51 280.66 -51 281.32 -51 282 C-49.68 282 -48.36 282 -47 282 C-47 282.66 -47 283.32 -47 284 C-25.01897701 290.96428451 -5.17067136 288.76625181 16 280 C12.07816867 286.90934402 6.82606638 290.31392416 0 294 C6.33194918 302.72367817 16.41019343 307.79934524 26.375 311.375 C26.99656982 311.6011499 27.61813965 311.8272998 28.25854492 312.06030273 C41.17515789 316.3647636 54.23632434 317.52767096 67.75 317.375 C68.48979095 317.37034729 69.22958191 317.36569458 69.99179077 317.36090088 C101.06414924 317.13268889 130.46472413 309.35387505 157 293 C157.99257813 292.41992188 158.98515625 291.83984375 160.0078125 291.2421875 C174.60087784 282.25285925 189.42127659 267.59457827 195 251 C195 250.01 195 249.02 195 248 C194.07767578 247.85304688 194.07767578 247.85304688 193.13671875 247.703125 C186.63492063 246.5002405 186.63492063 246.5002405 183.9375 244.375 C182.1251879 239.78380933 182.27005455 236.0213874 183.9140625 231.46875 C186.49088367 225.9493653 189.44728415 222.02333029 194 218 C190.23312573 206.59811712 177.49704294 198.95522086 167.37890625 193.6171875 C163.52871823 191.80905322 161.35222337 191 157 191 C156.71898437 190.2778833 156.43796875 189.5557666 156.1484375 188.81176758 C155.06410417 186.15694892 153.8648176 183.59672858 152.625 181.01171875 C149.77703981 174.77606397 147.86147474 168.39864409 146 161.8125 C145.30667564 159.42167594 144.61266814 157.03104988 143.91796875 154.640625 C143.58845215 153.49787109 143.25893555 152.35511719 142.91943359 151.17773438 C139.84040302 140.53602912 136.55740524 130.11898451 132 120 C131.72897461 119.39768555 131.45794922 118.79537109 131.17871094 118.17480469 C127.75880006 110.61278946 124.21135115 103.16123767 120 96 C119.34 96 118.68 96 118 96 C117.773125 95.278125 117.54625 94.55625 117.3125 93.8125 C115.70180279 90.36100597 113.8178607 88.57282933 111 86 C110.4328125 85.44054687 109.865625 84.88109375 109.28125 84.3046875 C101.21316604 76.66646047 92.93679448 73.18358921 81.78125 73.34228516 C71.87820058 73.91854019 66.69218246 79.88543149 60.43359375 86.94921875 Z M-101.1875 115.125 C-105.61550368 122.14872998 -105.85980056 128.66381666 -104.27734375 136.64453125 C-101.78960802 147.42780701 -98.14730089 157.74589366 -94 168 C-93.34 168 -92.68 168 -92 168 C-92 169.32 -92 170.64 -92 172 C-91.34 172 -90.68 172 -90 172 C-89.81630859 172.86625 -89.81630859 172.86625 -89.62890625 173.75 C-86.21727208 185.95559802 -75.94194994 197.44933952 -68 207 C-67.46761719 207.64453125 -66.93523437 208.2890625 -66.38671875 208.953125 C-65.26374212 210.30702359 -64.13304153 211.65451318 -63 213 C-59.7220625 211.74633267 -56.69570016 210.31657868 -53.625 208.625 C-47.08003835 205.28310292 -40.10777419 203.69638877 -33 202 C-33.42152344 201.51789063 -33.84304687 201.03578125 -34.27734375 200.5390625 C-35.09912109 199.59160156 -35.09912109 199.59160156 -35.9375 198.625 C-36.48277344 197.99851562 -37.02804688 197.37203125 -37.58984375 196.7265625 C-39 195 -39 195 -40 193 C-40.66 193 -41.32 193 -42 193 C-42.66 191.35 -43.32 189.7 -44 188 C-44.66 188 -45.32 188 -46 188 C-46.20625 187.319375 -46.4125 186.63875 -46.625 185.9375 C-48.42895027 182.08360625 -50.9010345 178.92212236 -54 176 C-54.66 176 -55.32 176 -56 176 C-58.65867473 169.90068739 -58.25604648 164.32482891 -55.9375 158.1875 C-55.628125 157.465625 -55.31875 156.74375 -55 156 C-55 154.68 -55 153.36 -55 152 C-55.66 152 -56.32 152 -57 152 C-57 151.34 -57 150.68 -57 150 C-58.60997335 148.62814533 -58.60997335 148.62814533 -60.6875 147.375 C-61.71423828 146.70597656 -61.71423828 146.70597656 -62.76171875 146.0234375 C-65.34767285 144.65347102 -65.34767285 144.65347102 -70 145 C-69.505 152.425 -69.505 152.425 -69 160 C-70.65 160 -72.3 160 -74 160 C-74.309375 159.05125 -74.61875 158.1025 -74.9375 157.125 C-75.87394742 154.13919592 -75.87394742 154.13919592 -77 152 C-77.17328529 150.02568402 -77.2668682 148.04388061 -77.3125 146.0625 C-77.34988281 145.00160156 -77.38726562 143.94070312 -77.42578125 142.84765625 C-77 140 -77 140 -75.18359375 138.1484375 C-71.8981257 136.42048114 -69.67554695 136.57118619 -66 137 C-63.80649532 137.91627411 -61.76754953 138.95470675 -59.69921875 140.125 C-58.02219565 141.15260325 -58.02219565 141.15260325 -56 141 C-55.505 142.485 -55.505 142.485 -55 144 C-54.34 144 -53.68 144 -53 144 C-52.60554688 144.85078125 -52.60554688 144.85078125 -52.203125 145.71875 C-50.90978636 148.17105444 -49.39876646 150.27193722 -47.75 152.5 C-44.55070912 157.01316803 -42.12232885 161.61765499 -39.73046875 166.59375 C-37.65037784 170.6881953 -35.34871544 174.61784024 -33 178.5625 C-22.00582465 197.06128795 -22.00582465 197.06128795 -21 202 C-19.35 202.33 -17.7 202.66 -16 203 C-17.27684665 198.95466342 -18.78268551 195.19342836 -20.625 191.375 C-26.07882739 179.69014133 -31.56447336 167.6070715 -34.4296875 154.99609375 C-34.97316347 152.7100811 -34.97316347 152.7100811 -37 150 C-37.66 150 -38.32 150 -39 150 C-39.26167969 149.42121094 -39.52335937 148.84242188 -39.79296875 148.24609375 C-42.89210385 142.47909478 -48.18375143 137.40342726 -53 133 C-53.66 133 -54.32 133 -55 133 C-55 132.34 -55 131.68 -55 131 C-57.275897 129.13790245 -59.55198736 127.39911027 -61.9375 125.6875 C-62.62320068 125.1912915 -63.30890137 124.69508301 -64.01538086 124.18383789 C-74.02659166 117.02454141 -89.08039745 107.0535983 -101.1875 115.125 Z " fill="#E9EAEA" transform="translate(193,74)"/>
<path d="M0 0 C0.53367188 0.46277344 1.06734375 0.92554688 1.6171875 1.40234375 C1.6171875 2.06234375 1.6171875 2.72234375 1.6171875 3.40234375 C2.2771875 3.40234375 2.9371875 3.40234375 3.6171875 3.40234375 C3.6171875 4.06234375 3.6171875 4.72234375 3.6171875 5.40234375 C4.2771875 5.40234375 4.9371875 5.40234375 5.6171875 5.40234375 C10.57147464 10.59544641 13.64944044 17.01584934 16.6171875 23.46484375 C17.04942627 24.3887793 17.48166504 25.31271484 17.92700195 26.26464844 C20.89296156 32.66654365 23.62924677 39.12024097 26.1796875 45.69921875 C27.83263672 49.95735968 29.56120867 54.1806637 31.3046875 58.40234375 C31.59045654 59.09682617 31.87622559 59.79130859 32.1706543 60.50683594 C33.50277454 63.73702261 34.85692736 66.95306112 36.26171875 70.15234375 C39.83464167 78.71912147 39.54587189 87.1695716 36.2734375 95.8203125 C36.056875 96.34238281 35.8403125 96.86445313 35.6171875 97.40234375 C36.22304688 97.37914062 36.82890625 97.3559375 37.453125 97.33203125 C42.08489693 97.23227001 46.27856556 97.42891108 50.8046875 98.46484375 C56.28744018 99.62449284 60.24372429 99.92398121 65.1640625 96.76953125 C66.9268848 95.5111003 68.66813643 94.22172012 70.3828125 92.8984375 C72.6171875 91.40234375 72.6171875 91.40234375 75.6171875 91.40234375 C75.6171875 90.74234375 75.6171875 90.08234375 75.6171875 89.40234375 C83.56497291 86.80714851 89.52710596 86.79684464 97.30859375 90.125 C101.65843504 92.53176498 104.03547662 95.65721112 105.6171875 100.40234375 C106.38194464 107.4616404 104.72031533 113.70488309 102.6171875 120.40234375 C100.8046875 121.08984375 100.8046875 121.08984375 98.6171875 121.40234375 C96.83984375 120.42578125 96.83984375 120.42578125 95.6171875 118.40234375 C95.61424689 115.84401126 95.74574236 113.54755766 96.0546875 111.02734375 C96.78047532 104.47346663 96.78047532 104.47346663 94.6171875 98.40234375 C91.76655708 96.09991148 88.43049953 95.86621309 84.8203125 95.953125 C80.45900752 96.84239818 77.14325593 99.81534852 73.6171875 102.40234375 C64.77635868 108.62307239 56.99215563 108.16829577 46.6171875 106.40234375 C42.94894606 106.3153701 39.28574261 106.34359465 35.6171875 106.40234375 C35.6171875 113.12152238 38.80164903 116.68392532 43 121.75390625 C44.6171875 124.40234375 44.6171875 124.40234375 44.359375 127.23828125 C43.99199219 128.30949219 43.99199219 128.30949219 43.6171875 129.40234375 C39.34816449 128.90976417 36.49245971 126.39800913 33.6171875 123.40234375 C29.99291413 118.73888299 27.09859215 114.17982188 25.6171875 108.40234375 C23.9465625 109.39234375 23.9465625 109.39234375 22.2421875 110.40234375 C14.28801971 113.93752944 4.08144624 113.70440273 -4.30078125 111.70703125 C-12.21034193 108.46697025 -17.68275512 103.04762607 -21.3828125 95.40234375 C-22.49236621 92.54460769 -23.41299842 89.64216835 -24.3203125 86.71484375 C-27.83399625 75.83852574 -32.1931824 65.66696144 -37.35742188 55.48193359 C-51.5478378 27.35017451 -51.5478378 27.35017451 -47.6953125 11.58984375 C-45.05152005 4.36347772 -41.21483972 -1.337124 -34.3203125 -4.97265625 C-22.11799669 -10.37027799 -10.62777694 -7.22615283 0 0 Z M-37.8203125 7.90234375 C-41.86104508 14.36751588 -41.18660937 23.78391765 -39.921875 31.05078125 C-38.03490001 37.91049032 -34.70612712 44.1428968 -31.3828125 50.40234375 C-30.7228125 50.40234375 -30.0628125 50.40234375 -29.3828125 50.40234375 C-29.24881042 50.97698868 -29.11480835 51.55163361 -28.97674561 52.14369202 C-28.39795965 54.34474106 -27.6860741 56.4133797 -26.87988281 58.54077148 C-26.57576477 59.34518173 -26.27164673 60.14959198 -25.95831299 60.9783783 C-24.55916346 64.6363439 -23.15699576 68.29308222 -21.74609375 71.9465332 C-21.00542667 73.87145547 -20.27037113 75.79854657 -19.54101562 77.7277832 C-18.48552686 80.5189593 -17.41270368 83.30291131 -16.3359375 86.0859375 C-16.01490051 86.94440781 -15.69386353 87.80287811 -15.36309814 88.68736267 C-12.48062267 96.03685026 -8.334974 100.47286117 -1.3828125 104.40234375 C-0.3928125 104.07234375 0.5971875 103.74234375 1.6171875 103.40234375 C1.25367188 102.83128906 0.89015625 102.26023437 0.515625 101.671875 C-5.42734084 92.08693779 -9.91358402 82.04676912 -13.7578125 71.46484375 C-14.02078125 70.75513428 -14.28375 70.0454248 -14.5546875 69.31420898 C-16.00218191 65.20178788 -16.67357762 61.8261274 -16.3828125 57.40234375 C-15.76792969 57.20898438 -15.15304688 57.015625 -14.51953125 56.81640625 C-13.30716797 56.42582031 -13.30716797 56.42582031 -12.0703125 56.02734375 C-10.86955078 55.64449219 -10.86955078 55.64449219 -9.64453125 55.25390625 C-7.15556722 54.41402564 -7.15556722 54.41402564 -4.3828125 52.40234375 C-4.3828125 51.41234375 -4.3828125 50.42234375 -4.3828125 49.40234375 C-6.8989837 47.75715489 -8.15746834 47.38231316 -11.1953125 47.65234375 C-14.62679093 48.45975044 -17.99620224 49.42543695 -21.3828125 50.40234375 C-22.0428125 50.40234375 -22.7028125 50.40234375 -23.3828125 50.40234375 C-31.18290342 31.80212694 -31.18290342 31.80212694 -28.1953125 23.21484375 C-26.15547488 18.60223796 -24.06385034 14.65234624 -19.9453125 11.58984375 C-14.53243146 9.78555007 -9.05595522 9.6464404 -3.3828125 9.40234375 C-4.6054147 5.73453715 -5.49184925 5.51347018 -8.8203125 3.77734375 C-9.62339844 3.35195312 -10.42648438 2.9265625 -11.25390625 2.48828125 C-21.22872732 -2.59979262 -30.34320587 0.23351643 -37.8203125 7.90234375 Z " fill="#EBEBEC" transform="translate(220.3828125,184.59765625)"/>
<path d="M0 0 C2.9375 2.5625 2.9375 2.5625 5 5 C5.46921875 5.39316406 5.9384375 5.78632813 6.421875 6.19140625 C8.78176137 8.89592949 9.95243458 12.09465914 11.3125 15.375 C11.86935904 16.69604507 12.42802262 18.01633061 12.98828125 19.3359375 C13.29693115 20.06441895 13.60558105 20.79290039 13.92358398 21.54345703 C15.16358828 24.37333302 16.48511391 27.15947839 17.8046875 29.953125 C21.17457716 37.22213461 24.09873068 44.63777946 26.9519043 52.12255859 C27.82064633 54.39632144 28.70200056 56.66493944 29.58398438 58.93359375 C30.14659864 60.40074842 30.70847479 61.8681864 31.26953125 63.3359375 C31.52990677 64.00273529 31.79028229 64.66953308 32.05854797 65.35653687 C35.83404858 75.36196476 36.39875182 85.21043744 32 95 C29.75693274 98.32842238 27.43455866 100.89494792 24 103 C23.01 103 22.02 103 21 103 C21 103.66 21 104.32 21 105 C12.31521999 108.8985786 3.74657767 110.86078175 -5.6484375 108.26953125 C-13.3946737 105.11699326 -17.3452056 100.15407211 -20.8828125 92.73828125 C-22.34308998 89.15906965 -23.25886803 85.53524831 -24.1875 81.7890625 C-25.3248844 77.88477181 -27.06488746 74.35188575 -28.80859375 70.6875 C-30.29227428 67.34070589 -31.27387515 63.95244451 -32.2734375 60.4375 C-33.97499624 54.72904486 -36.28900884 49.32687102 -39.03515625 44.046875 C-43.9760406 34.42193174 -47.33980594 26.40787409 -44.2890625 15.4453125 C-40.54505745 5.94129968 -34.3403176 0.94898493 -25.3125 -3.25 C-16.37954925 -5.27255489 -8.01062728 -4.56487951 0 0 Z M-27 6 C-27 6.66 -27 7.32 -27 8 C-27.5775 8.2475 -28.155 8.495 -28.75 8.75 C-33.27462391 11.26367995 -35.34055144 14.17700695 -37 19 C-38.84080509 28.87192817 -34.31095976 36.50928361 -30 45 C-27.54460999 50.48139882 -25.59491405 56.13864675 -23.63647461 61.81152344 C-20.84203601 69.89238415 -17.9907344 77.9504158 -14.9375 85.9375 C-14.63360352 86.7713623 -14.32970703 87.60522461 -14.01660156 88.46435547 C-11.91548728 93.84998298 -9.9194215 96.86164247 -5 100 C-1.77566873 100.873938 -1.77566873 100.873938 1 101 C0.49210937 100.030625 -0.01578125 99.06125 -0.5390625 98.0625 C-4.86171701 89.68801551 -8.59809837 81.2993317 -11.7734375 72.42578125 C-12.50649399 70.37835915 -13.28793228 68.34587196 -14.1640625 66.35546875 C-15.0838832 63.76363751 -15.15598344 61.72971016 -15 59 C-14.22914063 58.75765625 -13.45828125 58.5153125 -12.6640625 58.265625 C-11.66117187 57.93046875 -10.65828125 57.5953125 -9.625 57.25 C-8.12839844 56.76273438 -8.12839844 56.76273438 -6.6015625 56.265625 C-3.70207827 54.8550651 -3.04162718 53.98683456 -2 51 C-6.5659385 50.1219349 -8.95005533 49.7790626 -13 52 C-14.99954746 52.04254356 -17.00053185 52.0461207 -19 52 C-24.33362025 42.80072837 -27.45050153 34.32807652 -25.375 23.625 C-23.31602213 18.19678563 -20.8760798 15.06679048 -15.8125 12.1875 C-11.20356001 10.75192853 -6.80183338 10.28018746 -2 10 C-2 9.34 -2 8.68 -2 8 C-10.06347029 3.13148963 -18.14882618 2.17246537 -27 6 Z " fill="#EDEEEE" transform="translate(300,162)"/>
<path d="M0 0 C5.3489412 0.06630919 10.76343504 1.16636085 15.8671875 2.74609375 C19.22751994 3.42174778 22.58753899 3.33116433 26 3.3125 C26.70318359 3.31636719 27.40636719 3.32023437 28.13085938 3.32421875 C31.92251243 3.31711162 35.36673141 2.98073814 39.0625 2.1875 C50.64140869 1.18437672 50.64140869 1.18437672 55.25 4.4375 C61.31188625 13.63484466 61.90870364 23.38595941 61.0625 34.1875 C60.046875 36.640625 60.046875 36.640625 59.0625 38.1875 C58.4025 38.1875 57.7425 38.1875 57.0625 38.1875 C56.8147583 38.8052832 56.5670166 39.42306641 56.31176758 40.05957031 C52.81790139 46.01081864 42.11333181 47.50940374 35.875 49.4375 C26.75695604 52.35854281 19.19153724 56.17616301 11.0625 61.1875 C9.15978896 62.23411478 7.24425614 63.25801712 5.3125 64.25 C4.53390625 64.65347656 3.7553125 65.05695313 2.953125 65.47265625 C2.01726562 65.82650391 2.01726562 65.82650391 1.0625 66.1875 C0.4025 65.8575 -0.2575 65.5275 -0.9375 65.1875 C-1.19921875 62.9296875 -1.19921875 62.9296875 -0.9375 60.1875 C9.99265655 47.60424979 29.41793716 41.49278667 45.0625 37.1875 C44.134375 36.07375 44.134375 36.07375 43.1875 34.9375 C39.65125922 29.59525054 38.64764535 22.69894826 39.390625 16.41015625 C39.85443889 14.31305489 40.44534006 12.2446998 41.0625 10.1875 C39.96035156 10.28289062 38.85820312 10.37828125 37.72265625 10.4765625 C23.83817346 11.54400635 10.18216442 11.43536577 -2.9375 6.1875 C-3.31968767 4.53135343 -3.65145102 2.86292976 -3.9375 1.1875 C-2.9375 0.1875 -2.9375 0.1875 0 0 Z " fill="#E4E4E5" transform="translate(299.9375,312.8125)"/>
<path d="M0 0 C3 1.125 3 1.125 5 4.125 C6.26552942 9.48308827 6.35316205 14.047124 4 19.125 C3.34 19.785 2.68 20.445 2 21.125 C-1.65361496 20.96614718 -3.52020823 20.51640907 -6.375 18.1875 C-8 16.125 -8 16.125 -8 14.125 C-8.90878906 14.558125 -8.90878906 14.558125 -9.8359375 15 C-16.11391646 17.7816276 -21.16245253 18.64872704 -28 18.125 C-27.979375 19.23875 -27.95875 20.3525 -27.9375 21.5 C-28 25.125 -28 25.125 -29 27.125 C-30.98 27.125 -32.96 27.125 -35 27.125 C-35 26.465 -35 25.805 -35 25.125 C-35.58136719 25.03605469 -36.16273438 24.94710938 -36.76171875 24.85546875 C-41.00100665 23.47196642 -43.67881354 19.80803863 -46 16.125 C-45.9375 12.625 -45.9375 12.625 -45 10.125 C-39.68004414 8.24736852 -36.18548909 8.10172402 -30.625 9.1875 C-23.10789003 10.50537857 -17.73202025 9.71605623 -11.40625 5.32421875 C-10.5503125 4.68097656 -9.694375 4.03773438 -8.8125 3.375 C-3.73215263 -0.4172593 -3.73215263 -0.4172593 0 0 Z " fill="#E0E0E0" transform="translate(307,284.875)"/>
<path d="M0 0 C1.4540625 0.0309375 1.4540625 0.0309375 2.9375 0.0625 C2.96255615 0.81233154 2.9876123 1.56216309 3.01342773 2.3347168 C3.13108641 5.8065816 3.25302572 9.27828423 3.375 12.75 C3.41431641 13.92884766 3.45363281 15.10769531 3.49414062 16.32226562 C3.74405296 23.33903514 4.16183391 30.30009437 4.84838867 37.28857422 C5.03010595 42.94520896 2.892729 47.05741333 -0.5 51.4375 C-4.30140463 55.33162181 -4.30140463 55.33162181 -7.0625 56.0625 C-13.18424961 55.74030265 -13.18424961 55.74030265 -15.72265625 53.78125 C-18.17159944 50.63974853 -18.20107317 46.94254866 -18.0625 43.0625 C-16.625 39.5 -16.625 39.5 -15.0625 37.0625 C-14.4025 37.0625 -13.7425 37.0625 -13.0625 37.0625 C-13.0625 36.4025 -13.0625 35.7425 -13.0625 35.0625 C-9.4183226 32.6330484 -7.35008728 32.90070425 -3.0625 33.0625 C-3.09802979 32.09836182 -3.13355957 31.13422363 -3.17016602 30.14086914 C-3.30018547 26.57593688 -3.42346787 23.01079841 -3.54467773 19.44555664 C-3.5981662 17.9002441 -3.65350068 16.35499433 -3.71069336 14.80981445 C-3.79241433 12.59339949 -3.8675717 10.37684616 -3.94140625 8.16015625 C-3.96844131 7.4653566 -3.99547638 6.77055695 -4.02333069 6.05470276 C-4.07551108 4.39140224 -4.07435107 2.72657661 -4.0625 1.0625 C-3.0625 0.0625 -3.0625 0.0625 0 0 Z " fill="#E0E0E0" transform="translate(464.0625,191.9375)"/>
<path d="M0 0 C1.67542976 0.28604898 3.34385343 0.61781233 5 1 C5.07213664 6.00147359 5.05787968 10.99862625 5 16 C4.98888184 16.96921387 4.97776367 17.93842773 4.96630859 18.93701172 C4.91725341 22.10478761 4.83702793 25.27055609 4.75 28.4375 C4.73590088 29.45521484 4.72180176 30.47292969 4.70727539 31.52148438 C4.45497173 39.18748894 2.87179612 44.62141633 -2.125 50.5 C-4 52 -4 52 -6 52 C-6 52.66 -6 53.32 -6 54 C-9.75800798 54.81055074 -12.2243172 55.28666538 -15.875 53.9375 C-18 52 -18 52 -19 49.3125 C-19 44.27677543 -17.97907932 40.16706575 -14.51953125 36.37890625 C-9.9817412 32.71336875 -6.72904821 32.80962664 -1 33 C-1.00785522 31.55379272 -1.00785522 31.55379272 -1.01586914 30.07836914 C-1.03392118 26.51327436 -1.04543274 22.94818364 -1.05493164 19.38305664 C-1.0599714 17.83780234 -1.0668032 16.29255284 -1.07543945 14.74731445 C-1.08752076 12.53074971 -1.09323173 10.31424782 -1.09765625 8.09765625 C-1.10281754 7.4028566 -1.10797882 6.70805695 -1.11329651 5.99220276 C-1.11349277 4.3277067 -1.06189129 2.66334501 -1 1 C-0.67 0.67 -0.34 0.34 0 0 Z " fill="#E3E3E4" transform="translate(443,284)"/>
<path d="M0 0 C1.32 0 2.64 0 4 0 C4.51046875 1.70542969 4.51046875 1.70542969 5.03125 3.4453125 C9.07423572 16.49700166 14.23704574 27.86447085 22.96875 38.546875 C24 40 24 40 24 42 C24.66 42 25.32 42 26 42 C27.65625 43.6796875 27.65625 43.6796875 29.5 45.875 C31.28933258 47.99035504 33.04019124 50.04019124 35 52 C35 53.32 35 54.64 35 56 C30.16232631 55.58534226 28.07468169 53.45801862 25 50 C24.32839844 49.30777344 23.65679687 48.61554688 22.96484375 47.90234375 C16.84573452 41.44736575 12.43598736 34.65759809 8 27 C7.46117188 26.12601563 6.92234375 25.25203125 6.3671875 24.3515625 C5.17508626 22.30114837 4.28777408 20.41483742 3.5 18.1875 C2.74493039 16.07010904 1.9868007 13.96733325 1.14453125 11.8828125 C-0.35600316 8.14908839 -1.49726945 5.10247298 -1 1 C-0.67 0.67 -0.34 0.34 0 0 Z " fill="#C3C4C5" transform="translate(103,219)"/>
<path d="M0 0 C0.66 0.33 1.32 0.66 2 1 C-2.29 5.29 -6.58 9.58 -11 14 C-11.99 13.67 -12.98 13.34 -14 13 C-12.88121617 11.82737096 -11.75476949 10.66204862 -10.625 9.5 C-9.99851563 8.8503125 -9.37203125 8.200625 -8.7265625 7.53125 C-7 6 -7 6 -5 6 C-5 5.34 -5 4.68 -5 4 C-3.37373596 2.61767557 -1.7074998 1.28062485 0 0 Z " fill="#B4B4B6" transform="translate(158,133)"/>
<path d="M0 0 C0.99 0.33 1.98 0.66 3 1 C2.195625 1.763125 1.39125 2.52625 0.5625 3.3125 C-2.16799024 5.79430898 -2.16799024 5.79430898 -3 9 C-5.0625 10.1875 -5.0625 10.1875 -7 11 C-5.5140084 6.40693504 -3.14985318 3.56430755 0 0 Z " fill="#9C9D9E" transform="translate(122,294)"/>
<path d="M0 0 C0.99 0.66 1.98 1.32 3 2 C3 3.32 3 4.64 3 6 C-0.68754757 5.50168276 -2.60490662 4.89932357 -5 2 C-4.34 1.67 -3.68 1.34 -3 1 C-3 1.66 -3 2.32 -3 3 C-2.01 3 -1.02 3 0 3 C0 2.01 0 1.02 0 0 Z " fill="#ABACAE" transform="translate(135,269)"/>
<path d="M0 0 C0 3 0 3 -1.875 5.1875 C-4 7 -4 7 -6 7 C-4.60667426 3.63279613 -3.0210714 2.0140476 0 0 Z " fill="#AEAEB0" transform="translate(184,181)"/>
</svg>
